# xmcd
#
# Track frame offsets: 
#        150
#        17583
#        35879
#        51554
#        65504
#        99120
#        116159
#        133388
#        150025
#        174326
#        185794
#        194329
#
# Disc length: 2831 seconds
#
# Revision: 0
# Processed by: cddbd v1.5.2PL0 Copyright (c) Steve Scherf et al.
# Submitted via: ExactAudioCopy v1.0b4
#
DISCID=a70b0d0c
DTITLE=Hernan Tamanini and La Tijuana Blus - Zurdo y Desprolijo
DYEAR=2016
DGENRE=Blues
TTITLE0=Blues en la Radio
TTITLE1=Hombre de Blues
TTITLE2=Boogie Mama
TTITLE3=El Viejo
TTITLE4=Platos Sucios
TTITLE5=Fue en Vano
TTITLE6=Dos Mujeres
TTITLE7=Me Gustas Mucho
TTITLE8=Uma Cartao
TTITLE9=Bombon
TTITLE10=El Sapo Pepe
TTITLE11=Autumm Leaves
EXTD=
EXTT0=
EXTT1=
EXTT2=
EXTT3=
EXTT4=
EXTT5=
EXTT6=
EXTT7=
EXTT8=
EXTT9=
EXTT10=
EXTT11=
PLAYORDER=
